<svg xmlns="http://www.w3.org/2000/svg" viewBox="0 0 160 160" width="160" height="160" role="img" aria-label="Team Matrix avatar">
  <title>Team Matrix avatar</title>
  <rect width="160" height="160" rx="36" fill="#F7ECF8"/>
  <rect x="32.0" y="32.0" width="16" height="16" rx="3.5" fill="#7B3FE4"/>
    <rect x="52.0" y="32.0" width="16" height="16" rx="3.5" fill="#1A0F2E" fill-opacity="0.1"/>
    <rect x="72.0" y="32.0" width="16" height="16" rx="3.5" fill="#1A0F2E" fill-opacity="0.1"/>
    <rect x="92.0" y="32.0" width="16" height="16" rx="3.5" fill="#1A0F2E" fill-opacity="0.1"/>
    <rect x="112.0" y="32.0" width="16" height="16" rx="3.5" fill="#7B3FE4"/>
    <rect x="32.0" y="52.0" width="16" height="16" rx="3.5" fill="#7B3FE4"/>
    <rect x="52.0" y="52.0" width="16" height="16" rx="3.5" fill="#7B3FE4"/>
    <rect x="72.0" y="52.0" width="16" height="16" rx="3.5" fill="#1A0F2E" fill-opacity="0.1"/>
    <rect x="92.0" y="52.0" width="16" height="16" rx="3.5" fill="#7B3FE4"/>
    <rect x="112.0" y="52.0" width="16" height="16" rx="3.5" fill="#7B3FE4"/>
    <rect x="32.0" y="72.0" width="16" height="16" rx="3.5" fill="#7B3FE4"/>
    <rect x="52.0" y="72.0" width="16" height="16" rx="3.5" fill="#1A0F2E" fill-opacity="0.1"/>
    <rect x="72.0" y="72.0" width="16" height="16" rx="3.5" fill="#0F8C98"/>
    <rect x="92.0" y="72.0" width="16" height="16" rx="3.5" fill="#1A0F2E" fill-opacity="0.1"/>
    <rect x="112.0" y="72.0" width="16" height="16" rx="3.5" fill="#7B3FE4"/>
    <rect x="32.0" y="92.0" width="16" height="16" rx="3.5" fill="#7B3FE4"/>
    <rect x="52.0" y="92.0" width="16" height="16" rx="3.5" fill="#1A0F2E" fill-opacity="0.1"/>
    <rect x="72.0" y="92.0" width="16" height="16" rx="3.5" fill="#1A0F2E" fill-opacity="0.1"/>
    <rect x="92.0" y="92.0" width="16" height="16" rx="3.5" fill="#1A0F2E" fill-opacity="0.1"/>
    <rect x="112.0" y="92.0" width="16" height="16" rx="3.5" fill="#7B3FE4"/>
    <rect x="32.0" y="112.0" width="16" height="16" rx="3.5" fill="#7B3FE4"/>
    <rect x="52.0" y="112.0" width="16" height="16" rx="3.5" fill="#1A0F2E" fill-opacity="0.1"/>
    <rect x="72.0" y="112.0" width="16" height="16" rx="3.5" fill="#1A0F2E" fill-opacity="0.1"/>
    <rect x="92.0" y="112.0" width="16" height="16" rx="3.5" fill="#1A0F2E" fill-opacity="0.1"/>
    <rect x="112.0" y="112.0" width="16" height="16" rx="3.5" fill="#7B3FE4"/>
</svg>
